<?xml version="1.0" standalone="no"?>
<!DOCTYPE svg PUBLIC "-//W3C//DTD SVG 20010904//EN"
 "http://www.w3.org/TR/2001/REC-SVG-20010904/DTD/svg10.dtd">
<svg version="1.0" xmlns="http://www.w3.org/2000/svg"
 width="450.000000pt" height="450.000000pt" viewBox="0 0 450.000000 450.000000"
 preserveAspectRatio="xMidYMid meet">

<g transform="translate(0.000000,450.000000) scale(0.100000,-0.100000)"
fill="#000000" stroke="none">
<path d="M2055 4490 c-215 -19 -506 -91 -674 -167 -299 -134 -472 -249 -678
-447 -259 -249 -422 -492 -556 -832 -160 -404 -188 -902 -76 -1343 121 -476
406 -913 796 -1220 265 -208 608 -364 943 -430 304 -59 516 -62 821 -12 908
151 1646 868 1819 1770 40 209 55 426 41 584 -37 403 -128 693 -319 1015 -104
175 -182 272 -352 442 -339 338 -769 553 -1253 624 -133 20 -379 28 -512 16z
m-517 -1587 l57 -28 -2 -89 c-1 -49 -4 -90 -6 -92 -2 -3 -20 2 -39 10 -81 34
-234 29 -310 -10 -26 -13 -28 -13 -33 8 -3 13 -7 54 -8 92 l-2 70 40 23 c104
60 205 66 303 16z m1712 -1 l55 -28 -4 -84 c-2 -47 -5 -88 -7 -91 -2 -4 -21
-1 -43 7 -92 32 -238 26 -312 -12 l-27 -13 -7 62 c-3 34 -9 73 -12 87 -4 22 2
29 38 50 119 69 215 75 319 22z m-866 -148 c66 -22 120 -47 134 -61 22 -22 24
-31 20 -94 -3 -51 0 -69 9 -69 9 0 13 15 13 43 0 59 15 104 52 158 l31 46 22
-26 c32 -38 42 -61 50 -111 12 -84 -35 -209 -86 -225 -11 -4 -23 -23 -30 -48
-26 -99 -49 -135 -108 -172 -31 -20 -71 -41 -88 -47 -29 -11 -33 -16 -33 -50
0 -37 -2 -39 -64 -70 l-63 -31 -54 29 c-48 26 -54 33 -57 65 -3 33 -7 38 -74
70 -104 49 -132 80 -160 172 -14 47 -29 79 -39 82 -28 9 -68 78 -80 136 -13
65 0 149 30 189 17 21 21 22 37 10 31 -27 64 -111 64 -167 0 -38 4 -53 14 -53
9 0 15 21 20 70 9 91 19 100 106 100 67 0 68 1 79 30 12 35 57 59 111 60 19 0
84 -16 144 -36z m-1118 -199 c21 -32 70 -33 169 -5 163 47 249 8 228 -102 -8
-42 -31 -88 -44 -88 -5 0 -18 -20 -29 -46 -11 -25 -42 -67 -70 -94 -57 -56
-64 -87 -22 -96 103 -22 192 -90 241 -185 l29 -57 52 43 c29 24 80 57 114 74
l61 32 20 -24 c11 -14 38 -50 60 -82 22 -31 45 -60 51 -63 6 -4 37 -114 69
-244 32 -131 61 -238 65 -238 3 0 32 106 63 235 43 175 63 241 80 259 12 13
36 51 52 84 24 48 35 61 53 62 30 0 148 -69 186 -109 34 -35 46 -39 46 -13 0
10 14 40 30 66 50 78 128 136 212 157 62 16 63 38 3 92 -25 22 -57 61 -70 86
-13 26 -31 53 -40 61 -28 23 -45 67 -45 114 0 59 30 95 86 103 35 4 42 2 57
-21 22 -32 61 -34 167 -6 115 30 197 22 220 -20 24 -44 5 -137 -34 -169 -8 -7
-25 -32 -36 -57 -12 -24 -43 -63 -70 -87 -61 -55 -60 -81 4 -97 61 -15 102
-39 152 -88 65 -62 95 -134 102 -238 l5 -84 -322 0 c-176 0 -321 -3 -321 -7 0
-5 7 -30 15 -57 10 -31 15 -91 15 -163 l0 -113 -625 0 -625 0 0 88 c0 78 17
188 35 235 7 16 -12 17 -314 17 l-321 0 -1 23 c-8 145 22 233 106 309 38 35
120 79 159 88 47 9 44 35 -9 82 -26 23 -55 61 -65 83 -10 23 -29 54 -43 67
-57 57 -56 171 1 202 42 23 79 20 98 -9z"/>
<path d="M1370 2885 c0 -20 -5 -25 -26 -25 -21 0 -25 -4 -22 -22 2 -15 11 -24
25 -26 14 -2 23 -11 25 -25 2 -14 10 -22 23 -22 13 0 21 8 23 22 2 14 11 23
25 25 14 2 23 11 25 26 3 18 -1 22 -22 22 -21 0 -26 5 -26 25 0 20 -5 25 -25
25 -20 0 -25 -5 -25 -25z"/>
<path d="M3080 2885 c0 -20 -5 -25 -26 -25 -21 0 -25 -4 -22 -22 2 -15 10 -23
23 -23 14 0 21 -8 23 -27 4 -38 42 -40 42 -3 0 20 5 25 25 25 34 0 37 47 3 52
-15 2 -24 11 -26 26 -5 32 -42 30 -42 -3z"/>
<path d="M3131 1894 c0 -11 3 -14 6 -6 3 7 2 16 -1 19 -3 4 -6 -2 -5 -13z"/>
</g>
</svg>
